<?xml version="1.0" encoding="UTF-8"?>
<!-- Generated by Pixelmator Pro 3.7.1 -->
<svg width="512" height="512" viewBox="0 0 512 512" xmlns="http://www.w3.org/2000/svg">
    <path id="Palm-Leaf" fill="#000000" fill-rule="evenodd" stroke="#000000" stroke-linecap="round" stroke-linejoin="round" d="M 199.056625 202.14212 C 202.338028 205.926788 209.804062 212.88501 227.898819 221.843658 C 251.194 233.372528 280.30249 222.490814 280.30249 222.490814 C 276.856689 221.849762 255.398285 221.917999 238.306732 208.36496 C 229.992035 201.772339 220.691742 199.845184 212.48111 199.088043 C 218.988663 197.461029 225.098953 195.726837 230.798203 193.931793 C 240.397629 204.318329 253.343582 207.418488 281.120117 212.489838 C 309.422821 217.657257 325.122131 203.065277 325.122131 203.065277 C 325.122131 203.065277 293.47525 206.643372 272.796539 194.637146 C 263.284332 189.115448 253.671066 188.461731 245.365158 188.940857 C 248.130569 187.911682 250.772964 186.88681 253.268951 185.877655 C 256.630005 184.514496 259.809967 183.146179 262.833405 181.7901 C 277.417908 188.902069 291.352966 189.221222 322.802979 179.838287 C 355.048981 170.210938 358.676697 155.382721 358.676697 155.382721 C 358.676697 155.382721 344.993042 166.745544 319.85672 167.992615 C 304.449249 168.755585 285.3013 173.358276 273.310669 176.82132 C 282.081085 172.497711 290.533569 167.557068 298.604492 162.036743 C 317.090851 156.929749 342.465179 144.200012 352.881897 133.102234 C 364.329468 120.911774 372.579803 110.474976 372.579803 110.474976 C 350.8927 112.359406 332.842957 127.03186 327.94812 131.283905 C 351.341034 109.742676 356.784576 76.837067 356.784576 76.837067 C 350.906342 87.762451 317.36969 100.258331 309.580292 121.923157 C 304.303711 136.604675 298.781219 150.806976 295.674927 157.969696 C 289.768341 162.074158 276.05191 170.824402 255.403366 179.572571 C 259.871002 176.009308 265.753082 171.674011 280.982941 159.342285 C 302.682312 141.771973 304.205688 110.384491 304.205688 110.384491 C 297.423889 127.815369 276.467499 140.861694 262.349121 156.37915 C 255.221466 164.377289 249.55278 173.56427 245.601105 183.522064 C 239.546631 185.81662 232.804382 188.139557 225.422119 190.360107 C 235.988892 181.039642 251.588165 165.176575 256.971771 150.372131 C 260.816589 139.81778 273.555084 123.707642 273.555084 123.707642 C 273.555084 123.707642 253.657425 123.232025 239.748779 147.31134 C 227.200455 169.036224 221.402451 179.092743 216.652237 192.84964 C 209.331818 194.816437 201.456665 196.643677 193.068481 198.237793 C 203.577332 192.760864 216.128098 183.68924 219.296616 169.281982 C 224.96257 143.492157 238.311035 136.77887 238.311035 136.77887 C 238.311035 136.77887 225.364075 132.507111 198.497696 165.759857 C 183.112228 184.804108 178.285126 195.329285 177.137695 200.850861 C 171.353363 201.662292 165.361069 202.336884 159.160812 202.874634 C 169.031631 196.638123 185.606323 183.081329 189.837387 163.524048 C 192.050735 153.290314 197.396713 139.610535 197.396713 139.610535 C 197.396713 139.610535 174.882553 155.649536 161.647522 176.107056 C 149.991699 194.126221 149.553848 199.63974 150.774231 203.477081 L 116.335251 203.683197 C 114.955238 203.63147 113.794685 204.708252 113.742973 206.088196 C 113.691368 207.468201 114.768089 208.628723 116.14801 208.680359 C 126.532547 209.057495 136.747238 209.172791 146.324036 208.726105 C 146.72757 213.617615 149.027954 218.157349 152.733795 221.375427 C 160.291306 227.954529 168.144867 224.872803 170.249725 228.668732 C 170.249725 228.668732 170.816284 218.758118 165.138412 216.264099 C 159.460541 213.770111 156.490021 214.303864 152.706894 210.7453 C 152.069366 210.031586 151.485641 209.271729 150.960373 208.471832 C 156.90741 208.113159 162.685364 207.618774 168.294235 206.988708 C 171.845673 214.9104 181.052658 225.290741 197.183502 238.850677 C 215.004898 253.834595 247.805313 243.143921 247.805313 243.143921 C 247.805313 243.143921 234.073822 244.342407 208.248016 224.617737 C 193.164963 213.098206 181.277557 208.416382 174.601852 206.231079 Z"/>
    <path id="Palm-Leaf-copy-4" fill="#000000" fill-rule="evenodd" stroke="#000000" stroke-linecap="round" stroke-linejoin="round" d="M 290.952484 34.78653 C 288.652557 32.518372 283.502808 28.42038 271.419281 23.57077 C 255.86319 17.330261 237.696609 25.789703 237.696609 25.789703 C 239.944153 26.028595 253.736252 24.905731 265.405823 32.759521 C 271.082794 36.579773 277.158844 37.351105 282.475494 37.425018 C 278.373627 38.798218 274.532532 40.220367 270.958771 41.66098 C 264.265076 35.466187 255.786285 34.124084 237.673859 32.260437 C 219.218307 30.36145 209.859024 40.531982 209.859024 40.531982 C 209.859024 40.531982 230.024765 36.64035 243.922729 43.319305 C 250.31575 46.3909 256.528931 46.327759 261.844696 45.602112 C 260.118561 46.402802 258.471313 47.19458 256.917389 47.968842 C 254.825134 49.014221 252.849564 50.053802 250.973984 51.077667 C 241.240051 47.238739 232.265213 47.734253 212.517929 55.347931 C 192.271164 63.158722 190.68454 72.874146 190.68454 72.874146 C 190.68454 72.874146 198.910355 64.880981 215.007675 62.815308 C 224.874741 61.550049 236.95343 57.628204 244.488037 54.798889 C 239.066986 58.019531 233.881332 61.62085 228.970154 65.575684 C 217.342117 69.788513 201.669174 79.248322 195.530334 86.90683 C 188.783707 95.319641 184.004379 102.444244 184.004379 102.444244 C 197.852173 100.142273 208.718521 89.801788 211.651596 86.822052 C 197.695541 101.847107 195.850494 123.275726 195.850494 123.275726 C 199.080215 115.956238 220.012482 106.236359 223.930878 91.916473 C 226.584946 82.212433 229.421188 72.804138 231.05806 68.043091 C 234.648987 65.10733 243.027252 58.792114 255.862228 52.1297 C 253.169189 54.645142 249.605606 57.728058 240.434464 66.421875 C 227.367508 78.808868 227.966385 99.064392 227.966385 99.064392 C 231.449905 87.51712 244.266678 78.075928 252.56308 67.389923 C 256.743225 61.889526 259.925659 55.698212 261.965485 49.097687 C 265.742493 47.318085 269.960266 45.485657 274.594635 43.68689 C 268.269958 50.210297 259.038879 61.192963 256.322205 70.981415 C 254.381088 77.960083 247.001617 88.957764 247.001617 88.957764 C 247.001617 88.957764 259.817657 88.263031 267.548706 72.08316 C 274.52356 57.485352 277.745422 50.728516 280.107574 41.645386 C 284.714935 40.012848 289.685974 38.442139 294.998535 36.995514 C 288.517853 41.045013 280.905151 47.508209 279.59256 56.929932 C 277.246735 73.795013 269.002625 78.782135 269.002625 78.782135 C 269.002625 78.782135 277.540985 80.877441 293.141205 58.148438 C 302.07489 45.131348 304.648956 38.122009 305.109009 34.514526 C 308.786926 33.701996 312.605438 32.96701 316.564514 32.309509 C 310.532196 36.815277 300.558044 46.364319 298.82132 59.15036 C 297.912964 65.840881 295.16391 74.904388 295.16391 74.904388 C 295.16391 74.904388 308.831696 63.460907 316.311768 49.643341 C 322.8992 37.472778 322.903442 33.906158 321.925903 31.500488 L 344.056244 29.636292 C 344.946045 29.600159 345.638031 28.849548 345.601868 27.959778 C 345.565643 27.069977 344.815094 26.378052 343.925354 26.414215 C 337.230194 26.693909 330.65741 27.133453 324.52298 27.902161 C 324.017609 24.77771 322.310425 21.974792 319.766144 20.092255 C 314.57663 16.242584 309.682556 18.618713 308.138489 16.28418 C 308.138489 16.28418 308.272583 22.684143 312.048279 24.002045 C 315.823944 25.319946 317.706848 24.827423 320.317963 26.924957 C 320.763702 27.351746 321.177185 27.810913 321.555084 28.298767 C 317.749817 28.828369 314.060028 29.436737 310.485809 30.12384 C 307.80426 25.209595 301.363159 18.999054 290.310883 11.09256 C 278.100128 2.35556 257.550446 10.877869 257.550446 10.877869 C 257.550446 10.877869 266.318085 9.416901 283.913239 20.799225 C 294.189301 27.446655 302.067078 29.858826 306.46875 30.928101 Z"/>
    <path id="Palm-Leaf-copy" fill="#000000" fill-rule="evenodd" stroke="#000000" stroke-linecap="round" stroke-linejoin="round" d="M 81.86541 183.211121 C 85.718216 181.313385 93.113586 176.635803 104.480919 163.578857 C 119.111511 146.768372 116.421463 120.259857 116.421463 120.259857 C 115.139946 122.978058 110.526871 140.788971 95.567581 152.014099 C 88.290749 157.475067 84.668625 164.768677 82.253944 171.413208 C 82.320755 165.662262 82.212227 160.217438 81.963806 155.100281 C 92.666618 149.399475 98.054909 139.337677 108.30529 117.405426 C 118.74987 95.057709 110.064743 78.862427 110.064743 78.862427 C 110.064743 78.862427 106.145309 105.886688 91.688232 120.42337 C 85.038925 127.110504 82.404808 134.940796 80.994659 141.93338 C 80.742935 139.415985 80.468002 137.001556 80.174248 134.711945 C 79.775169 131.627899 79.332375 128.692902 78.865692 125.890381 C 87.937645 115.342712 91.234825 103.855438 90.297264 75.731232 C 89.330261 46.893646 77.82225 40.658234 77.82225 40.658234 C 77.82225 40.658234 84.267998 54.479218 79.832184 75.596832 C 77.112045 88.54071 76.762306 105.422241 77.024956 116.120026 C 75.347824 107.905579 73.089828 99.820557 70.267998 91.925812 C 70.055557 75.483185 65.020248 51.669403 58.083389 40.615479 C 50.464664 28.468872 43.604561 19.355408 43.604561 19.355408 C 40.447933 37.751221 48.688309 55.91333 51.149437 60.898071 C 38.375366 36.809967 12.270415 25.134735 12.270415 25.134735 C 20.051958 32.387238 23.117069 62.919403 39.389202 74.093964 C 50.416729 81.664886 60.99332 89.335449 66.257568 93.470337 C 68.376152 99.261993 72.648087 112.541626 75.409752 131.569763 C 73.426849 127.089203 71.111511 121.267609 64.198708 105.953491 C 54.349289 84.134033 28.650272 76.040253 28.650272 76.040253 C 41.630356 85.457825 47.889618 105.676605 57.686291 120.762207 C 62.768303 128.413879 69.153732 135.114288 76.552055 140.558502 C 77.137444 146.078979 77.596703 152.176025 77.831779 158.781555 C 72.401543 147.98996 62.640514 131.601013 51.534317 123.914581 C 43.618008 118.429199 33.029514 104.358978 33.029514 104.358978 C 33.029514 104.358978 28.305023 120.757172 45.247936 137.532013 C 60.534286 152.666321 67.612701 159.663239 77.987976 166.596436 C 78.026047 173.095459 77.82769 180.02417 77.324333 187.327637 C 75.069054 177.420471 70.276932 165.037659 59.018101 159.274689 C 38.862885 148.963501 36.200195 136.432343 36.200195 136.432343 C 36.200195 136.432343 29.840065 146.240021 51.570972 175.757324 C 64.016762 192.661255 71.695152 198.954926 76.024643 201.108124 C 75.438828 206.081787 74.694275 211.198181 73.790977 216.457245 C 70.766899 206.91394 63.130787 190.217926 47.832134 182.453033 C 39.826664 178.390411 29.645012 170.97995 29.645012 170.97995 C 29.645012 170.97995 38.047169 193.141876 52.133018 208.569916 C 64.540337 222.157654 69.017563 223.720581 72.465561 223.543549 L 65.142067 252.149597 C 64.798851 253.282837 65.439293 254.479645 66.572464 254.822815 C 67.705711 255.165924 68.902466 254.525513 69.24559 253.392334 C 71.818199 244.862244 74.136673 236.416016 75.850288 228.376495 C 79.994759 229.106293 84.260284 228.186432 87.735573 225.813385 C 94.836449 220.977448 93.989738 213.79364 97.59584 212.874084 C 97.59584 212.874084 89.499992 210.247528 86.196053 214.413605 C 82.892105 218.579681 82.688354 221.159363 78.913872 223.52243 C 78.183235 223.895813 77.426025 224.214569 76.648346 224.476135 C 77.64505 219.466034 78.492424 214.56662 79.190453 209.777924 C 86.532982 208.556488 97.145271 203.17981 111.901199 192.752899 C 128.205978 181.233856 126.477776 151.705109 126.477776 151.705109 C 126.477776 151.705109 124.483521 163.353821 102.505234 180.479492 C 89.669479 190.481445 83.199844 199.321167 79.934761 204.381958 Z"/>
    <path id="Palm-Leaf-copy-3" fill="#000000" fill-rule="evenodd" stroke="#000000" stroke-linecap="round" stroke-linejoin="round" d="M 411.404175 482.921539 C 413.378723 483.963837 417.604401 485.648651 426.568817 486.447723 C 438.108887 487.474579 448.444183 478.252106 448.444183 478.252106 C 446.909088 478.542358 438.005341 482.036774 428.715576 479.166931 C 424.196411 477.771088 420.021362 478.472687 416.488007 479.484375 C 418.928711 477.757294 421.187103 476.049866 423.264893 474.383545 C 428.930603 477.148041 434.809692 476.34491 447.168457 473.965149 C 459.761353 471.540344 463.926575 462.942352 463.926575 462.942352 C 463.926575 462.942352 451.356995 469.540619 440.826813 467.892822 C 435.983124 467.135315 431.883759 468.416504 428.510498 469.957184 C 429.493134 469.082916 430.425354 468.230347 431.299316 467.407928 C 432.475464 466.298706 433.575531 465.216614 434.612579 464.164856 C 441.820374 464.763733 447.661194 462.645477 459.211365 453.667419 C 471.052765 444.459259 470.164734 437.712982 470.164734 437.712982 C 470.164734 437.712982 466.315308 444.64386 456.074005 449.222076 C 449.796265 452.027771 442.584808 457.032776 438.16272 460.408264 C 441.107971 457.195404 443.821472 453.777557 446.282837 450.180511 C 453.138 445.072845 461.623474 435.68573 464.158478 429.39267 C 466.945251 422.479126 468.687012 416.810608 468.687012 416.810608 C 459.981598 421.096466 454.852875 430.107544 453.506134 432.664673 C 459.745178 419.936951 456.691589 405.387207 456.691589 405.387207 C 456.014252 410.87558 444.100006 421.483948 444.363342 431.742676 C 444.542633 438.694336 444.542358 445.486633 444.408813 448.964081 C 442.61795 451.623322 438.332886 457.474121 431.167603 464.443756 C 432.44809 462.24176 434.191528 459.490601 438.526825 451.90744 C 444.703674 441.102966 440.266693 427.817108 440.266693 427.817108 C 440.264771 436.154114 433.665833 444.959106 430.306854 453.686249 C 428.637634 458.160339 427.76651 462.892639 427.733246 467.667847 C 425.588562 469.59906 423.16275 471.653137 420.454498 473.768097 C 423.338928 468.189148 427.257294 459.079254 427.1026 452.059235 C 426.995117 447.053467 429.685089 438.302979 429.685089 438.302979 C 429.685089 438.302979 421.341858 441.319336 419.453003 453.56958 C 417.748962 464.621948 416.9646 469.736389 417.213226 476.218903 C 414.489685 478.218445 411.513123 480.249573 408.285767 482.266754 C 411.766968 478.293945 415.515839 472.497925 414.505035 466.000702 C 412.693237 454.371246 417.154419 449.426147 417.154419 449.426147 C 417.154419 449.426147 411.085693 449.742737 405.295319 467.897003 C 401.979614 478.293976 401.674316 483.44632 402.089478 485.925568 C 399.817474 487.19696 397.436981 488.445129 394.947968 489.670044 C 398.041412 485.484711 402.737518 477.175415 401.336304 468.367004 C 400.602844 463.757935 400.614166 457.211243 400.614166 457.211243 C 400.614166 457.211243 393.851471 467.511139 391.65744 478.147919 C 389.725616 487.516602 390.434296 489.877869 391.561127 491.274963 L 377.286896 496.92334 C 376.705231 497.124756 376.397003 497.759552 376.598419 498.341187 C 376.799896 498.922852 377.434662 499.231049 378.016296 499.029633 C 382.391418 497.508942 386.653656 495.906921 390.56015 494.174469 C 391.517914 496.141418 393.206848 497.655884 395.266235 498.394226 C 399.468658 499.906769 402.233612 497.35791 403.721191 498.59494 C 403.721191 498.59494 402.355743 494.386108 399.594055 494.26709 C 396.832367 494.148071 395.684509 494.84964 393.538025 493.98233 C 393.157898 493.788818 392.792633 493.567413 392.445221 493.319946 C 394.857941 492.210327 397.178528 491.071655 399.406921 489.903931 C 402.161896 492.621307 407.663605 495.446625 416.555328 498.474487 C 426.379425 501.820892 438.279388 492.081421 438.279388 492.081421 C 438.279388 492.081421 432.76828 494.797302 418.853058 490.774292 C 410.726196 488.424866 405.031403 488.399933 401.905029 488.570343 Z"/>
    <path id="Palm-Leaf-copy-6" fill="#000000" fill-rule="evenodd" stroke="#000000" stroke-linecap="round" stroke-linejoin="round" d="M 245.499557 428.511139 C 245.254578 430.730408 245.238007 435.279541 247.784348 443.911774 C 251.063965 455.02356 263.43576 461.253448 263.43576 461.253448 C 262.602448 459.931976 256.084412 452.931732 255.344971 443.236938 C 254.985031 438.520844 252.800278 434.894531 250.562561 431.978943 C 253.064804 433.615601 255.481857 435.089844 257.794403 436.411194 C 257.30191 442.696106 260.206451 447.8703 266.955444 458.493561 C 273.832306 469.318054 283.358948 470.037506 283.358948 470.037506 C 283.358948 470.037506 272.608368 460.766205 270.276978 450.365997 C 269.204163 445.582245 266.507996 442.239044 263.836945 439.666504 C 265.010803 440.259766 266.145996 440.814056 267.23175 441.325226 C 268.69516 442.012299 270.105469 442.638519 271.464386 443.217255 C 273.552338 450.141968 277.666229 454.797943 290.25647 462.24762 C 303.167633 469.883789 309.117371 466.582062 309.117371 466.582062 C 309.117371 466.582062 301.257385 465.544617 293.240356 457.697845 C 288.326691 452.887695 281.024475 448.016022 276.261688 445.141174 C 280.331238 446.701904 284.506409 447.971863 288.755737 448.941498 C 296.022705 453.444031 307.868774 457.892731 314.653076 457.941528 C 322.106934 457.996826 328.019196 457.536896 328.019196 457.536896 C 320.837708 451.011597 310.573212 449.547485 307.700287 449.233093 C 321.829559 450.36618 334.243652 442.18634 334.243652 442.18634 C 328.889618 443.570313 314.6492 436.380219 305.20285 440.389801 C 298.801971 443.107635 292.483459 445.599945 289.199615 446.751831 C 286.068695 446.061768 279.053619 444.222717 269.940796 440.11499 C 272.459045 440.498077 275.658051 441.11026 284.30307 442.360321 C 296.620483 444.141357 307.351196 435.138428 307.351196 435.138428 C 299.595123 438.196045 288.982819 435.288666 279.631927 435.366608 C 274.857422 435.455688 270.13559 436.381958 265.681305 438.103363 C 263.097809 436.817017 260.296814 435.314209 257.335602 433.571014 C 263.583801 434.206909 273.496063 434.50885 279.969543 431.788818 C 284.586639 429.851898 293.713745 429.143036 293.713745 429.143036 C 293.713745 429.143036 287.84613 422.4888 275.757416 425.227173 C 264.8508 427.697876 259.805328 428.845093 253.866318 431.455261 C 251.006836 429.655457 248.025085 427.631958 244.964325 425.370026 C 249.937439 427.150452 256.704803 428.510803 262.377808 425.186249 C 272.531036 419.233215 278.76828 421.568451 278.76828 421.568451 C 278.76828 421.568451 276.246735 416.039307 257.234131 417.314941 C 246.345779 418.045929 241.440857 419.652649 239.286942 420.948669 C 237.270462 419.301758 235.235809 417.54538 233.182983 415.679504 C 238.211502 417.02124 247.664429 418.340485 255.344101 413.804626 C 259.362457 411.430908 265.456573 409.039032 265.456573 409.039032 C 265.456573 409.039032 253.393539 406.527893 242.693726 408.390289 C 233.26976 410.03125 231.333267 411.557007 230.447159 413.11792 L 219.954666 401.912354 C 219.553848 401.44516 218.85022 401.391388 218.383072 401.792206 C 217.915939 402.193054 217.862167 402.896637 218.262985 403.36377 C 221.283096 406.87561 224.337479 410.252625 227.382629 413.250793 C 225.904358 414.863556 225.115356 416.990417 225.18425 419.177063 C 225.319397 423.641357 228.705048 425.278076 228.10025 427.115814 C 228.10025 427.115814 231.514359 424.301147 230.611618 421.688446 C 229.708878 419.075745 228.635025 418.265442 228.654129 415.950409 C 228.694672 415.525787 228.766586 415.104767 228.869293 414.690765 C 230.78688 416.527985 232.697693 418.268799 234.6017 419.913208 C 233.0849 423.473175 232.475647 429.627838 232.922012 439.010376 C 233.414215 449.377075 246.841095 456.872742 246.841095 456.872742 C 246.841095 456.872742 242.292297 452.742767 240.928177 438.322052 C 240.131409 429.899994 238.064789 424.593353 236.758987 421.74765 Z"/>
    <path id="Palm-Leaf-copy-2" fill="#000000" fill-rule="evenodd" stroke="#000000" stroke-linecap="round" stroke-linejoin="round" d="M 105.422745 464.665924 C 107.526009 464.962738 111.851295 465.109467 120.132988 462.936646 C 130.793594 460.137909 137.073746 448.552887 137.073746 448.552887 C 135.793152 449.307251 128.94899 455.303741 119.708939 455.727783 C 115.214027 455.934326 111.702888 457.90741 108.86602 459.951324 C 110.494354 457.619049 111.965797 455.363098 113.288826 453.202148 C 119.250984 453.851379 124.254738 451.238373 134.550674 445.126556 C 145.041641 438.898987 146 429.860779 146 429.860779 C 146 429.860779 136.874451 439.81662 126.917778 441.734161 C 122.338028 442.616608 119.081352 445.084167 116.558228 447.549988 C 117.156151 446.450867 117.715927 445.38736 118.233253 444.369629 C 118.928703 442.997833 119.564774 441.674805 120.154213 440.399261 C 126.799034 438.613159 131.344833 434.835327 138.791168 423.077698 C 146.424042 411.020264 143.455704 405.267609 143.455704 405.267609 C 143.455704 405.267609 142.242935 412.711792 134.550674 420.109344 C 129.835236 424.64328 124.992577 431.446716 122.121758 435.892883 C 123.723015 432.068115 125.050812 428.134491 126.095146 424.121704 C 130.585815 417.341156 135.157074 406.204773 135.398773 399.754974 C 135.665924 392.668701 135.398773 387.033508 135.398773 387.033508 C 128.987137 393.67453 127.299431 403.392883 126.917778 406.115723 C 128.401947 392.712799 120.981087 380.67276 120.981087 380.67276 C 122.142975 385.803772 114.895988 399.138 118.43679 408.235962 C 120.836922 414.400787 123.024986 420.480835 124.025787 423.636597 C 123.279457 426.593903 121.328789 433.211609 117.1604 441.758759 C 117.597183 439.375183 118.271408 436.350861 119.708939 428.16629 C 121.75708 416.504944 113.505096 406.041931 113.505096 406.041931 C 116.189308 413.505188 113.119194 423.512756 112.924149 432.406769 C 112.871399 436.949402 113.616287 441.466064 115.124939 445.75119 C 113.827377 448.170807 112.317734 450.791016 110.574898 453.556671 C 111.359428 447.633545 111.931885 438.216675 109.531754 431.982727 C 107.822823 427.53656 107.411507 418.837189 107.411507 418.837189 C 107.411507 418.837189 100.915092 424.225159 103.171013 435.799164 C 105.206474 446.241394 106.152092 451.072144 108.463142 456.794708 C 106.669418 459.461975 104.659431 462.239075 102.420441 465.084442 C 104.256607 460.406769 105.744972 454.010834 102.746964 448.52066 C 97.378487 438.69458 99.778618 432.830811 99.778618 432.830811 C 99.778618 432.830811 94.448341 435.069397 95.114075 453.185181 C 95.495728 463.559998 96.882378 468.270325 98.052757 470.355804 C 96.42865 472.225861 94.699928 474.110046 92.866592 476.008362 C 94.287201 471.265381 95.813766 462.314575 91.72168 454.881409 C 89.580208 450.992004 87.481186 445.128265 87.481186 445.128265 C 87.481186 445.128265 84.746086 456.526703 86.209038 466.754761 C 87.498169 475.763275 88.89325 477.648621 90.352013 478.536133 L 79.394592 488.190887 C 78.938805 488.558594 78.867424 489.226105 79.235107 489.681854 C 79.602837 490.137604 80.270332 490.208984 80.726059 489.841309 C 84.152412 487.070557 87.45153 484.263367 90.39016 481.454041 C 91.881165 482.906128 93.880905 483.717621 95.962173 483.715057 C 100.211159 483.715057 101.86496 480.542755 103.595062 481.170746 C 103.595062 481.170746 101.016861 477.843262 98.50647 478.626465 C 95.996078 479.409668 95.194618 480.407471 92.993828 480.322662 C 92.591209 480.271881 92.19294 480.191376 91.802223 480.081818 C 93.604439 478.311249 95.314781 476.544373 96.933266 474.781189 C 100.274773 476.325989 106.109695 477.08252 115.044395 476.928131 C 124.916275 476.758514 132.43042 464.206665 132.43042 464.206665 C 132.43042 464.206665 128.372284 468.413239 114.620346 469.295258 C 106.588875 469.810486 101.483307 471.622864 98.739716 472.782654 Z"/>
    <path id="Palm-Leaf-copy-5" fill="#000000" fill-rule="evenodd" stroke="#000000" stroke-linecap="round" stroke-linejoin="round" d="M 32.171364 305.685394 C 31.679407 307.75177 31.129398 312.044434 32.519314 320.492859 C 34.310234 331.368225 45.258137 338.70285 45.258137 338.70285 C 44.626644 337.357422 39.295532 329.983154 39.736252 320.743896 C 39.950413 316.249329 38.313835 312.569275 36.543777 309.553925 C 38.713787 311.392944 40.82246 313.068634 42.850414 314.587708 C 41.647236 320.463165 43.781517 325.689087 48.905106 336.510773 C 54.125744 347.537476 63.034931 349.335724 63.034931 349.335724 C 63.034931 349.335724 53.974834 339.320313 52.995499 329.228058 C 52.544609 324.585907 50.391987 321.113037 48.172546 318.370667 C 49.211037 319.068604 50.217625 319.725281 51.182587 320.335388 C 52.483444 321.155884 53.741295 321.91272 54.956211 322.618713 C 56.113953 329.401306 59.450771 334.280029 70.461609 342.79187 C 81.753502 351.517395 87.758232 349.099274 87.758232 349.099274 C 87.758232 349.099274 80.459839 347.196594 73.812996 338.847107 C 69.739235 333.728882 63.41777 328.272003 59.259144 324.998505 C 62.917679 326.949951 66.710098 328.639313 70.607819 330.053833 C 76.939362 335.158081 87.600174 340.74939 93.999207 341.592346 C 101.029579 342.520142 106.665092 342.780396 106.665092 342.780396 C 100.651848 335.776611 91.133568 333.18866 88.45829 332.554413 C 101.66404 335.283783 114.344482 329.019745 114.344482 329.019745 C 109.127396 329.697388 96.528221 321.236816 87.139336 323.912476 C 80.777306 325.72641 74.519516 327.337097 71.284065 328.038818 C 68.40937 327.019562 62.00275 324.459412 53.88224 319.511047 C 56.214615 320.168518 59.162754 321.122192 67.177315 323.31781 C 78.596436 326.446045 89.78434 319.207245 89.78434 319.207245 C 82.10302 321.182739 72.425896 317.191467 63.588974 316.166656 C 59.071114 315.689911 54.504635 316.009735 50.097347 317.111633 C 47.809479 315.59375 45.341709 313.846008 42.750908 311.852539 C 48.574879 313.186768 57.897125 314.636169 64.32798 312.828674 C 68.914299 311.54245 77.614067 311.945374 77.614067 311.945374 C 77.614067 311.945374 72.856331 304.974152 61.122234 306.139343 C 50.535564 307.190735 45.637596 307.681061 39.724232 309.447571 C 37.236134 307.412598 34.658882 305.152069 32.035038 302.657135 C 36.520809 304.922119 42.749794 307.001282 48.495953 304.529114 C 58.780434 300.101746 64.394417 303.038971 64.394417 303.038971 C 64.394417 303.038971 62.663429 297.522949 44.564617 296.493958 C 34.199524 295.90506 29.38027 296.845764 27.194609 297.816254 C 25.4844 296.024597 23.769886 294.127472 22.051067 292.124878 C 26.640663 293.982208 35.409809 296.338013 43.192642 292.957977 C 47.265015 291.189087 53.299168 289.646851 53.299168 289.646851 C 53.299168 289.646851 42.205959 285.859222 31.885969 286.360596 C 22.796448 286.802795 20.789074 288.015717 19.769192 289.385193 L 11.179924 277.574036 C 10.856404 277.085907 10.198467 276.952515 9.710367 277.276001 C 9.222275 277.599548 9.088868 278.257477 9.412393 278.745544 C 11.851039 282.41571 14.337876 285.962555 16.860491 289.150696 C 15.275476 290.499573 14.280794 292.414795 14.088979 294.487213 C 13.692172 298.717621 16.696171 300.660461 15.909331 302.324341 C 15.909331 302.324341 19.463074 300.068176 18.917725 297.495605 C 18.372375 294.923035 17.453785 294.031891 17.743757 291.848633 C 17.831903 291.452515 17.949251 291.063507 18.094845 290.684753 C 19.689348 292.644409 21.288773 294.512299 22.893116 296.288391 C 21.042994 299.471008 19.744883 305.209778 19.064169 314.119873 C 18.311125 323.964417 30.1064 332.61792 30.1064 332.61792 C 30.1064 332.61792 26.297197 328.184692 26.703302 314.410461 C 26.940382 306.365997 25.612711 301.113464 24.71423 298.27356 Z"/>
    <path id="Rhaphidophora-Leaf" fill="#000000" fill-rule="evenodd" stroke="#000000" stroke-linecap="round" stroke-linejoin="round" d="M 480.435791 31 C 480.435791 31 484.60675 43.867767 491.376007 62.453125 C 498.145294 81.038513 503.888885 89.401642 492.059784 102.795197 C 482.519226 113.594574 454.17923 125.336823 451.717712 132.197052 C 449.293793 138.962189 453.189148 147.991974 461.974182 143.137268 C 470.336578 138.514343 497.022522 105.796234 500.264954 103.478973 C 500.264954 103.478973 503 116.728943 503 126.043182 C 503 133.274658 502.418121 148.366699 498.213654 152.026215 C 495.144226 154.697662 476.978668 164.50766 461.290405 166.385254 C 450.91568 167.626953 439.587738 172.001678 447.615143 177.32547 C 457.420319 183.828735 484.915802 165.583862 497.529877 164.333954 C 497.529877 164.333954 496.856384 175.654358 495.478607 180.060516 C 492.841339 188.494751 483.808777 207.411072 464.025452 207.411072 C 450.581299 207.411072 442.328949 200.6138 442.14502 196.470856 C 441.946716 191.997681 435.090637 192.122803 434.623627 195.787079 C 434.237976 198.811371 429.813324 207.411072 414.110687 207.411072 C 398.355408 207.411072 372.042816 192.101593 369.666046 175.957947 C 367.355621 160.262848 371.717346 159.547607 371.717346 159.547607 C 371.717346 159.547607 401.270294 181.42804 422.315857 181.42804 C 442.865723 181.42804 419.455017 170.66629 412.059418 167.752777 C 404.663818 164.839264 373.768646 150.743469 373.768646 141.769745 C 373.768646 132.56012 372.101624 118.406219 393.597778 100.743927 C 393.597778 100.743927 407.322296 132.664764 414.794464 141.769745 C 422.266632 150.874725 436.395264 152.41391 435.307373 142.453522 C 434.262573 132.886963 399.14859 95.752441 405.221771 85.701111 C 412.154449 74.22345 426.03009 59.307831 437.358673 56.983032 C 437.358673 56.983032 437.366882 76.849792 439.409973 87.752411 C 441.453064 98.655029 449.199432 108.309082 454.452759 100.743927 C 460.186127 92.486786 445.563843 66.459991 445.563843 61.085602 C 445.563843 55.711243 461.280151 31 480.435791 31 Z"/>
    <path id="Rhaphidophora-Leaf-copy-2" fill="#000000" fill-rule="evenodd" stroke="#000000" stroke-linecap="round" stroke-linejoin="round" d="M 262.342255 304.646545 C 262.342255 304.646545 275.849792 296.166077 295.144318 283.065704 C 314.438843 269.965332 322.342834 260.986481 341.067261 270.646027 C 356.16568 278.437622 377.76535 307.449249 386.318237 308.284302 C 394.751617 309.10376 403.950958 302.045532 395.866608 293.402771 C 388.169128 285.176239 343.066437 264.10672 339.481903 261.06842 C 339.481903 261.06842 353.840607 254.119232 364.488922 251.43222 C 372.756165 249.346069 390.177673 245.657501 395.574219 249.408478 C 399.513794 252.146851 415.969299 270.084229 422.641602 287.477844 C 427.054077 298.980286 435.323273 310.668671 439.093842 299.95575 C 443.699921 286.870056 414.909943 260.699768 409.842041 246.639587 C 409.842041 246.639587 422.978149 244.143829 428.412872 244.447845 C 438.815918 245.029724 463.047302 249.898956 468.754456 272.515808 C 472.632874 287.885559 467.242676 299.280762 462.559418 300.686218 C 457.502747 302.203339 459.623657 310.00531 463.94751 309.482117 C 467.516205 309.050568 478.624054 311.628052 483.153992 329.579773 C 487.699127 347.591644 477.787598 382.089478 460.017395 389.463806 C 442.740814 396.632935 440.664856 391.852814 440.664856 391.852814 C 440.664856 391.852814 457.153687 351.754913 451.082428 327.695038 C 445.154144 304.201874 439.604584 334.070251 438.407257 343.365601 C 437.209961 352.66095 430.007996 392.047546 419.748962 394.636322 C 409.220276 397.293121 393.52002 403.282043 367.126709 383.802307 C 367.126709 383.802307 399.660248 358.903473 407.913727 347.734436 C 416.167206 336.565399 413.850983 319.969177 402.777802 324.086243 C 392.142456 328.040466 359.819031 378.896423 346.57605 374.853027 C 331.454498 370.238495 310.399658 358.678406 304.473785 346.397888 C 304.473785 346.397888 327.183655 340.657288 339.058441 335.176361 C 350.933228 329.695435 359.735352 318.054535 349.571106 314.231201 C 338.477356 310.058655 312.941071 334.283569 306.796936 335.833984 C 300.652802 337.384399 267.868347 326.545837 262.342255 304.646545 Z"/>
    <path id="Rhaphidophora-Leaf-copy" fill="#000000" fill-rule="evenodd" stroke="#000000" stroke-linecap="round" stroke-linejoin="round" d="M 190.762665 424.537781 C 190.762665 424.537781 183.109451 416.04425 171.480637 404.033447 C 159.851822 392.022644 152.537201 387.547546 157.051025 373.134583 C 160.692596 361.512329 178.517929 342.684143 178.053604 336.541412 C 177.593033 330.485046 171.475052 324.858551 166.368042 331.632568 C 161.507309 338.082031 152.186798 372.528656 150.482956 375.434387 C 150.482956 375.434387 143.806183 366.151062 140.596497 358.962677 C 138.104523 353.381683 133.352875 341.533691 135.336639 337.260559 C 136.784927 334.141113 147.423889 320.310242 158.884476 313.455017 C 166.463409 308.92157 173.698349 301.641724 165.668533 300.299255 C 155.860229 298.659149 140.927429 322.214813 131.623077 327.526276 C 131.623077 327.526276 128.241837 318.557526 127.786804 314.682251 C 126.915703 307.264191 127.368095 289.552673 142.636124 282.735321 C 153.011826 278.102448 161.723022 280.504578 163.292648 283.63855 C 164.987137 287.022461 170.235291 284.563293 169.333008 281.574371 C 168.588455 279.107483 169.039764 270.945801 181.158463 265.534668 C 193.317795 260.105347 218.900543 262.853302 226.297958 274.493347 C 233.489609 285.810059 230.369873 287.865082 230.369873 287.865082 C 230.369873 287.865082 200.021973 281.162537 183.7798 288.414856 C 167.920197 295.496368 189.696228 295.734558 196.407867 295.43457 C 203.119507 295.134583 231.820663 295.366638 234.913025 302.292236 C 238.08667 309.399872 244.250656 319.748901 233.747162 340.787598 C 233.747162 340.787598 212.155151 320.881775 203.250824 316.429779 C 194.346497 311.977814 182.912155 315.658691 187.184097 322.970856 C 191.287079 329.993927 231.183334 346.552612 229.959976 356.40271 C 228.564804 367.649719 222.996063 383.942627 215.054199 389.640625 C 215.054199 389.640625 208.201767 374.311035 202.867935 366.600861 C 197.534103 358.890686 188.228943 354.109436 186.78157 361.75827 C 185.202194 370.106537 205.455994 385.154175 207.307999 389.301941 C 209.160019 393.449677 205.54628 417.936707 190.762665 424.537781 Z"/>
</svg>
