<?xml version="1.0" encoding="UTF-8"?>
<!-- Generated by Pixelmator Pro 3.7.1 -->
<svg width="9166" height="6108" viewBox="0 0 9166 6108" xmlns="http://www.w3.org/2000/svg">
    <g id="Background">
        <g id="Group">
            <path id="Path" fill="#ffffff" stroke="none" visibility="hidden" d="M 9166.666992 -0.333496 L 9166.666992 6108 L 0 6108 L 0 -0.333496 L 9166.666992 -0.333496 Z"/>
            <g id="g1">
                <g id="g2">
                    <path id="path1" fill="#000000" stroke="none" d="M 2568.291748 -0.333496 C 2568.208252 -0.208496 2568.166504 -0.041504 2568.125 0.083008 C 2474.083496 265.25 2358.541504 522.791504 2222.958496 769.375 C 2141.208496 918.125 2051.458252 1064.416504 2000 1226.166504 C 1948.000122 1389.583008 1936.874878 1563.375 1890.458374 1728.458008 C 1813.958252 2000.541504 1645.291626 2237.249756 1544.375122 2501.291748 C 1477.791626 2675.375 1441.416626 2859.416504 1384.541626 3036.958008 C 1174.124878 3693.791504 680.916626 4281.708008 701.875061 4971.124512 C 705.000061 5074.249512 719.958252 5177.083008 716.208374 5280.166992 C 710.041565 5452.083008 652.375 5617.458496 595.333374 5779.75 C 556.875122 5889.166504 518.416626 5998.583496 479.958344 6108 L 285.624939 6108 C 422.041565 5697.083496 365.791565 5232.541992 437.541718 4798.416504 C 516.624939 4319.666992 751.249939 3882.624512 988.333374 3459.291992 C 1027.333374 3389.583252 1067.083252 3318.583496 1083.125 3240.375 C 1111.041748 3104.416748 1064.541626 2962.333496 1086.916626 2825.374756 C 1117.083252 2640.291748 1266.416626 2495.541748 1316.916626 2314.958252 C 1335.083252 2249.999756 1339.999878 2181.833252 1358.791626 2117.041504 C 1396.499878 1987.375 1488.166504 1876.875 1515.583252 1744.666504 C 1425.333374 1858.333008 1335.125 1972 1244.916748 2085.625 C 1198.833252 2143.749756 1152.499878 2202.124756 1115.541626 2266.416504 C 1079.666626 2328.75 1053.041626 2395.874756 1027.666748 2463.166504 C 866.750061 2890.083008 744.208252 3348.041504 444.791656 3692.249756 C 398.874908 3745 348.458344 3795.583496 318.208313 3858.624512 C 287.541718 3922.458252 279.750061 3994.333252 264.708466 4063.500244 C 220.499924 4266.625 112.916565 4448.583008 0 4624.166504 L 0 4089.958008 C 105.416618 3808.083496 242.124939 3536.083252 297.791534 3240.833252 C 324.083466 3101.458008 331.875092 2958.5 368.374878 2821.458252 C 408.041626 2672.458252 480.458313 2534.625 552.249878 2398.208252 C 589.666748 2327.208252 627.708435 2255.249756 682.666748 2196.75 C 789.416748 2083.083252 946.166748 2033.416504 1076.208252 1947.333496 C 1249.374878 1832.708496 1370.666748 1656.666504 1487.583374 1485.041504 C 1566.916626 1368.583008 1646.249878 1252.125 1725.583374 1135.666504 C 1747.708374 1103.25 1770.041626 1070.291504 1782.583374 1033.083008 C 1796.666748 991.166504 1797.541504 946.208496 1802.291626 902.25 C 1840.750122 549.208496 2120.25 291.041504 2334.75 -0.333496 L 2568.291748 -0.333496 Z"/>
                </g>
                <g id="g3">
                    <path id="path2" fill="#000000" stroke="none" d="M 309.874969 4884.916504 C 308.416748 5062.874512 361.708313 5192.625 312.291718 5363.583008 C 284.166718 5460.791504 218.291733 5541.625488 163.499954 5626.666504 C 95.375061 5732.333008 43.374889 5846.5 0 5964.541992 L 0 5356.583008 C 29.750061 5324.708496 63.333385 5295.708496 85.791779 5258.333008 C 106.458282 5223.916992 116.541542 5184.291992 125.04171 5145.041992 C 168.83342 4943.333008 178.333282 4734.958008 229.458359 4534.958008 C 287.000031 4309.875 397.624969 4098.5 549.75 3922.875244 C 390.208435 4205.375 313.583374 4445.541992 309.874969 4884.916504 Z"/>
                </g>
                <g id="g4">
                    <path id="path3" fill="#000000" stroke="none" d="M 2110.833252 -0.333496 C 2028.041626 251.583008 1955.083252 446.791504 1687 734.666504 C 1580.666626 848.916504 1458.208252 1054.791504 1370.041626 1222.416504 C 1394.875122 1071.625 1442.541748 900.375 1495.083374 810.75 C 1573.833252 676.291504 1665.875 548.416504 1719.916748 401.416504 C 1758.166748 297.333496 1776.208252 186.625 1804.750122 79.208008 C 1811.833496 52.5 1819.625122 25.958496 1828.041626 -0.333496 L 2110.833252 -0.333496 Z"/>
                </g>
                <g id="g5">
                    <path id="path4" fill="#000000" stroke="none" d="M 1268.708252 -0.333496 C 1228.250122 79.958008 1210.833252 177.875 1192.5 267.708008 C 1144 505.666504 1058.458496 736 939.875061 947.916504 C 890.458435 1036.25 835.041565 1122 799.083435 1216.666504 C 718.374878 1429.166504 740.958374 1672.083496 648.541748 1879.75 C 581.75 2029.708252 460.791779 2148.083252 373.166656 2286.916748 C 205.166626 2553.166504 159.583282 2893.708496 -0 3156.708008 L -0 2643.958252 C 5.500031 2631.625 11.291759 2619.416504 17.374929 2607.333252 C 62.583416 2517.499756 123.958336 2436.999756 179.750061 2353.291748 C 381.708282 2050.333252 511.124939 1704.458008 607.125122 1353.25 C 632.708252 1259.75 656.083435 1165.458008 689.958435 1074.625 C 767.124939 867.583496 898.583252 678.5 933.625061 460.333496 C 942.916626 402.333496 945.166809 343.333008 956.083435 285.625 C 975.291687 183.625 1020.499939 89.708496 1073.333252 -0.333496 L 1268.708252 -0.333496 Z"/>
                </g>
                <g id="g6">
                    <path id="path5" fill="#000000" stroke="none" d="M 1739.125122 -0.333496 C 1636.083252 234.375 1533.083374 469.041504 1430.083252 703.75 C 1380.541748 816.625 1330.833496 929.875 1267.374878 1035.583496 C 1208.416748 1133.833496 1137.75 1225.333008 1087.791748 1328.5 C 1000.791687 1508.083008 979.583252 1716.75 874.250061 1886.25 C 874.166626 1886.416504 874.041748 1886.541504 873.958313 1886.708496 C 860.916626 1907.25 828.875 1897.166504 829.250061 1872.833496 C 832.541687 1651.791504 896.291626 1431.708496 1012.75 1243.75 C 1111.374878 1084.666504 1249.5 941.25 1285.708374 757.583008 C 1308.999878 639.625 1287.291748 515.291504 1318.124878 399.083496 C 1356.166626 255.625 1471.166748 134.125 1522.791504 -0.333496 L 1739.125122 -0.333496 Z"/>
                </g>
                <g id="g7">
                    <path id="path6" fill="#000000" stroke="none" d="M 997.333252 -0.333496 C 955.374939 79.125 919.416565 161.75 889.958435 246.625 C 857.666809 339.541504 832.958252 435.375 791.291565 524.458496 C 744.708252 624.125 677.958435 713.041504 627.249878 810.666504 C 577.999878 905.458496 544.416565 1007.458496 511.041779 1108.916504 C 492.250061 1166.041504 473.333221 1223.833496 468.458313 1283.75 C 464.541626 1331.75 469.791656 1380.125 466.833252 1428.166504 C 454.000092 1637.5 293.374878 1805.25 219.291687 2001.5 C 203.750107 2042.749756 191.750076 2085.875 168.500015 2123.333252 C 143.791702 2163.041504 107.833351 2194.083252 75.833382 2228.166504 C 47.541553 2258.333252 22.083282 2291.291504 -0 2326.291748 L -0 2044.291504 C 114.958443 1847.083496 258.916718 1661.833496 297.916656 1438.75 C 308.749908 1376.708496 311.041779 1313.25 325.166565 1251.875 C 350.333405 1142.541504 411.750031 1045.125 447.500092 938.75 C 485.874939 824.75 494.249969 702.041504 535.958374 589.208496 C 568.166626 502.25 619.166565 423.75 665.208435 343.25 C 728.208435 233.208496 782.458252 118.208496 827.416748 -0.333496 L 997.333252 -0.333496 Z"/>
                </g>
                <g id="g8">
                    <path id="path7" fill="#000000" stroke="none" d="M 463.916779 -0.333496 C 443.250031 61.5 432.791656 128.208008 426.583344 193.166504 C 414.499908 319.166504 413.875061 449.166504 366.666656 566.625 C 339.125061 635.166504 296.625 696.833496 267.791748 764.875 C 243.791702 821.458008 229.583237 881.666504 216.208389 941.666504 C 164.458206 1174.166504 117.624916 1420.583008 0 1622.583496 L 0 1002.458496 C 11.750031 973.333496 25.416565 945 41.583252 917.875 C 67.791748 873.958008 100.375114 833.791504 123.291779 788.083008 C 190.499878 654.041504 168.333435 486.291504 245.125076 357.5 C 179.624939 434.375 112.999977 513.041504 75.291695 606.75 C 58.12505 649.333496 47.041576 694.833008 23.000082 733.958008 C 16.083273 745.208496 8.208211 755.75 0 766.083496 L 0 327.75 C 7.083384 321.541504 14.375051 315.583496 21.833292 309.833496 C 51.666767 286.875 84.541573 267.375 110.333252 239.958496 C 144.66655 203.458008 163.958237 155.75 184.45842 110 C 201.208237 72.625 219.291687 35.791504 238.583374 -0.333496 L 463.916779 -0.333496 Z"/>
                </g>
                <g id="g9">
                    <path id="path8" fill="#000000" stroke="none" d="M 3194.833496 550.291504 C 3138.708252 686.708496 3010.708252 777.166504 2893.375 866.583496 C 2756.958252 970.541504 2624.75 1085.375 2534.875 1231.458496 C 2483.458496 1315.041504 2447.083252 1406.916504 2402.208496 1494.208496 C 2288.75 1715 2118.666504 1912.125 2007.875122 2130.749756 C 2024.624878 1978.958008 2107.291748 1836.833496 2151.458252 1687.958496 C 2178.958496 1595.333008 2191.833252 1498.333496 2227.208496 1408.416504 C 2298.541748 1227.291504 2453.875 1092.125 2543.5 919.291504 C 2607.583252 795.833008 2636.041748 657.083008 2691.083252 529.291504 C 2771.416748 342.708008 2908.375 178.375 3000.916504 -0.333496 L 3213.708252 -0.333496 C 3208.208252 12.5 3202.916748 25.458496 3197.791504 38.458496 C 3184.916748 71.375 3173.166748 105.416504 3172 140.75 C 3170 200.583008 3198.166748 256.75 3212.458252 314.875 C 3231.583496 392.583496 3225.333496 476.291504 3194.833496 550.291504 Z"/>
                </g>
                <g id="g10">
                    <path id="path9" fill="#000000" stroke="none" d="M 1587.75 3217.458496 C 1549.708252 3472.583252 1563.948486 3954.519043 1394.115723 4104.661133 C 1194.723022 4280.936035 1184.901367 4473.863281 1074.541748 4575.083008 C 1088.083374 4377.958496 1144.333374 4183.791504 1238.666748 4010.166748 C 1289.166748 3917.208252 1350.458252 3829.916748 1393.624878 3733.333252 C 1445.125122 3618.083008 1469.458252 3492.875 1493.416626 3368.916748 C 1515.958374 3252.124756 1538.541626 3135.375244 1561.083252 3018.583496 C 1605.666626 3071.333008 1597.958374 3149.125 1587.75 3217.458496 Z"/>
                </g>
                <g id="g11">
                    <path id="path10" fill="#000000" stroke="none" d="M 1194.125122 4991.708008 C 1130.874878 5144.208008 1011.208374 5272.708496 974.374878 5433.666504 C 944.958252 5562.125 971.916687 5695.958496 970.833313 5827.708008 C 969.999939 5922.333008 954.666626 6015.666504 933.041626 6108 L 662.5 6108 C 691.125 6018.958496 732.666748 5929.791504 750.541687 5838.625 C 767.333252 5752.916992 763 5664.708496 765.458435 5577.458008 C 770.291626 5407.333008 802.958435 5234.083496 890.875 5088.375 C 939.458191 5007.791504 1003.541565 4937.874512 1059.041626 4861.875 C 1149.583496 4737.958008 1217.333252 4597.375 1257.833374 4449.333008 C 1261.666626 4632.708008 1264.416748 4822.249512 1194.125122 4991.708008 Z"/>
                </g>
                <g id="g12">
                    <path id="path11" fill="#000000" stroke="none" d="M 4266.75 -0.333496 C 4153 99.333496 4071.25 240.458008 4002.208496 378.125 C 3883.875 614 3782.75 858.125 3688.166504 1104.458008 C 3632.875 1248.541504 3579.125 1394.791504 3495.708252 1524.625 C 3328.083252 1785.583496 3055.208252 1959.375 2854.125 2195.5 C 2452.375 2667.333252 2377.083252 3330.499512 2095.625 3882.583008 C 2013.75 4043.124756 1914.291626 4194.333008 1834.875 4356.166992 C 1746.416748 4536.416992 1683.708496 4728 1621.291626 4918.875 C 1501.208252 5286.083496 1398.250122 5716.833496 1284.625 6108 L 1093.5 6108 C 1197.958374 5656.291504 1250.583374 5178.875 1432.541626 4756.75 C 1523.833252 4544.916504 1657 4349.75 1715.625 4126.708008 C 1817.624878 3738.833008 1682.208252 3314.583252 1802.583374 2932.041748 C 1898.375 2627.666504 2143.375 2391.958252 2264.958496 2096.958252 C 2260.666748 2261.499756 2254.833252 2432.333252 2180.125 2579 C 2132.583252 2672.291748 2059.666748 2750.25 2006.458252 2840.416748 C 1900.5 3019.958252 1873.916626 3294.625244 1897.958374 3539.083252 C 1905.374878 3614.416748 2009.375 3627.875 2035.416626 3556.791504 C 2183.125 3153.375 2337.125 2694.875 2481.541748 2319.916504 C 2607.416748 1993.208496 2741.708496 1653.916504 3001.083496 1418.75 C 3190.208496 1247.291504 3443.166504 1133.458496 3565 909.083496 C 3654.541748 744.25 3656.75 547.666504 3703.708496 366.041504 C 3737.625244 234.833496 3796.125 110.125 3874.666504 -0.333496 L 4266.75 -0.333496 Z"/>
                </g>
                <g id="g13">
                    <path id="path12" fill="#000000" stroke="none" d="M 5240.958496 -0.333496 C 5063.083496 167.041504 4876.25 331.333008 4783.625488 551.25 C 4708.208008 730.291504 4701.375488 934.541504 4611.208008 1106.583008 C 4512.958496 1294 4329.916504 1418.375 4172.875 1560.208008 C 3673.458252 2011.291504 3417.25 2665.791748 3026.125 3213.416748 C 2802.583252 3526.458008 2528 3815.958008 2408.583252 4181.583008 C 2369.541748 4301.041504 2348 4426.583008 2296 4540.999512 C 2223.375 4700.833496 2095 4830.666504 2024.791748 4991.541992 C 1962.25 5134.958008 1949.374878 5294.750488 1903.791504 5444.416504 C 1828.041626 5693.291504 1665.416748 5904.416504 1502.499878 6108 L 1401.583374 6108 C 1613 5754.458008 1811.541748 5389.916504 1900.625122 4989.458496 C 1945.333374 4788.583008 1963.625122 4575.875 2067.666504 4398.291504 C 2131.75 4288.833008 2224.666504 4199.75 2307.166504 4103.375 C 2501.416748 3876.499756 2640.958496 3603.041992 2710.625 3312.541504 C 2742.416748 3179.958496 2759.958496 3043.833252 2800.5 2913.625 C 2878.041504 2664.458252 3035.458496 2449.249756 3190.25 2239.166504 C 3259.75 2144.833252 3329.25 2050.541504 3398.708252 1956.208496 C 3447.666748 1889.791504 3497.083252 1822.833496 3559.125 1768.416504 C 3596.5 1735.625 3637.958252 1707.833008 3677.541504 1677.666504 C 3832.375 1559.666504 3956.458252 1406.75 4078.958496 1255.416504 C 4114.916504 1211 4151.416992 1165.625 4172.125 1112.375 C 4188.458008 1070.375 4194.416504 1024.625 4213.333496 983.708496 C 4243.833496 917.833496 4304 871.708008 4357.833496 823 C 4597.583008 605.958496 4735.041504 304.291504 4851.791504 -0.333496 L 5240.958496 -0.333496 Z"/>
                </g>
                <g id="g14">
                    <path id="path13" fill="#000000" stroke="none" d="M 4645.041992 -0.333496 C 4619.833496 33.708496 4595 67.958496 4574.916504 103.5 C 4502.25 231.916504 4489.625 387.875 4415.166504 515.291504 C 4386.583496 564.166504 4349.624512 607.5 4312.916504 650.583008 C 4177.833496 808.875 4042.75 967.166504 3907.708252 1125.458496 C 3982.333496 917.125 4071.708496 714.041504 4175 518.291504 C 4268.875 340.416504 4373.958496 168.916504 4482.708008 -0.333496 L 4645.041992 -0.333496 Z"/>
                </g>
                <g id="g15">
                    <path id="path14" fill="#000000" stroke="none" d="M 3133.75 3899.125 C 3043.083496 4088.291748 3043.083496 4088.291748 2952.458496 4277.416016 C 2898.125 4390.833496 2843.666504 4504.416992 2778.583252 4612.041504 C 2679.833252 4775.416504 2555.416504 4927.833496 2502.166748 5111.166504 C 2468.041748 5228.583008 2464.041748 5356.291504 2405.791748 5463.791992 C 2363.166504 5542.458496 2295.041748 5603.458008 2232.208252 5667.166504 C 2133.125 5767.625 2019.5 5937.375 1921.125 6108 L 1799 6108 C 1805.374878 6088.916504 1811.041748 6074.083496 1815.333252 6065.416992 C 1860.333252 5975 1923.000122 5893.416504 1958.833374 5799.041504 C 2005.416626 5676.416504 2005.874878 5534.833008 2080.708252 5427.083008 C 2114.625 5378.291504 2161.75 5339.916504 2196.541504 5291.75 C 2328.208496 5109.458008 2264.958496 4819 2435.791748 4672.791992 C 2492.791748 4624 2567.666504 4600.625 2626.375 4553.958496 C 2689.875 4503.541504 2729.833252 4429.916992 2768.125 4358.416504 C 2883.708496 4142.333008 2999.25 3926.25 3114.833252 3710.166748 C 3128 3685.625 3214.916748 3586.041504 3240.041504 3574.041504 C 3265.166748 3562.083252 3139 3888.083252 3133.75 3899.125 Z"/>
                </g>
                <g id="g16">
                    <path id="path15" fill="#000000" stroke="none" d="M 6219.666504 -0.333496 C 6023.375 241.125 5827.125 482.583008 5630.916504 724 C 5574.791504 793.041504 5518.583008 862.208496 5455.666504 925.083008 C 5275.166992 1105.583496 5043.374512 1230.916504 4874.875 1422.708008 C 4683.291504 1640.708008 4587 1929.333496 4396.458496 2148.25 C 4331.583496 2222.75 4256.333496 2288.458252 4198.833008 2368.833252 C 4148.791992 2438.791748 4112.375 2519.583252 4050.041748 2578.833252 C 3999.458252 2626.874756 3940.041504 2667.249756 3875.125244 2692.916748 C 3674.833496 2772.16626 3602.125 2869.916504 3530.291748 3135.5 C 3501 2954.54126 3599.166504 2777.041992 3716.208496 2635.916748 C 3833.25 2494.791504 3974.25 2370.041748 4058 2206.958252 C 4095.208252 2134.5 4120.416992 2055.583252 4165.791504 1987.958496 C 4256.041504 1853.333496 4413.541504 1780.25 4523.166992 1660.875 C 4688.208008 1481.208496 4730.208496 1214.208496 4894.416504 1033.75 C 4971.583008 948.958008 5072.708008 887 5141.541504 795.291504 C 5230.458496 676.708496 5257.25 519 5352.375488 405.333496 C 5409.625 336.875 5488.666992 288.375 5541.5 216.416504 C 5588.583496 152.25 5611.166504 74.75 5638.916992 -0.333496 L 6219.666504 -0.333496 Z"/>
                </g>
                <g id="g17">
                    <path id="path16" fill="#000000" stroke="none" d="M 6821.875 -0.333496 C 6799.083496 42.125 6775.5 84.125 6751.208496 125.75 C 6533.458496 498.5 6258.291504 833.958008 5984.416504 1167.625 C 5922.916504 1242.541504 5861.458496 1317.416504 5800 1392.291504 C 5718.5 1491.583496 5636.541992 1591.333496 5540 1676.041504 C 5431.458496 1771.333496 5300.458496 1852.875 5242.416504 1985.125 C 5193.583008 2096.416504 5205.666504 2224.416748 5177.791504 2342.666748 C 5111.416504 2624.041504 4834.666992 2807 4721.499512 3073 C 4631 3285.625 4651.749512 3536.333496 4542.75 3740.083008 C 4483.708496 3850.41626 4391.125 3938.125 4307.125 4030.833252 C 4061.125 4302.291504 3881.916504 4626.25 3704.958252 4947 C 3555.583496 5217.833008 3406.166504 5488.666504 3256.75 5759.458008 C 3493.25 4999.5 3846.875 4276.125 4301.333496 3622.750244 C 4319.833496 3596.16626 4339.333008 3566.958008 4337.625 3534.625 C 4335.416504 3492.666992 4299.291992 3461.999756 4274.166992 3428.291748 C 4196.583496 3324.333008 4233.166992 3155.125244 4346.75 3092.458496 C 4181.25 3137.666748 4060.708252 3310.583252 4075.583496 3481.54126 C 4080.333496 3536.041504 4097.041504 3591.583496 4082.875 3644.458252 C 4062 3722.5 3983.125 3767.04126 3921.166748 3818.916748 C 3685.458496 4016.25 3665.25 4368.791504 3507.458252 4632.666504 C 3360.625 4878.208008 3086.666504 5062.208496 3049.125 5345.875 C 3039.375 5419.375 3046.958496 5495 3030.208252 5567.208008 C 2980.583496 5781.416504 2733.75 5915.833496 2655.083252 6108 L 2234.583252 6108 C 2289 6041.666504 2343.416504 5975.291016 2397.833252 5908.916504 C 2517.666504 5762.833008 2640.958496 5609.791504 2684.458496 5425.916992 C 2708.625 5323.833496 2707.208252 5215.125 2747.833252 5118.416504 C 2783.625 5033.166992 2849.041748 4964.541992 2905.041748 4890.958008 C 2999.875 4766.416992 3069.458252 4624.875 3138.375 4484.375 C 3302.75 4149.249512 3467.125 3814.166504 3631.541748 3479.083496 C 3735.25 3267.625244 3844.666504 3048.999756 4028.916748 2902.291748 C 4255.125 2722.166504 4580.208496 2661.999756 4741.833496 2422.208252 C 4867.833496 2235.291504 4860.208008 1983.541504 4980.333496 1792.833496 C 5120.833496 1569.791504 5405.75 1475.291504 5560 1261.541504 C 5619.833496 1178.666504 5657.291504 1081.25 5718.041992 999.041504 C 5788.958008 903.083496 5887.958496 832.541504 5976.083496 752.125 C 6193.708496 553.583496 6347.541504 286.75 6412.875488 -0.333496 L 6821.875 -0.333496 Z"/>
                </g>
                <g id="g18">
                    <path id="path17" fill="#000000" stroke="none" d="M 8033.041504 -0.333496 C 8023 139.375 7978.208496 346.541504 7826.833008 568.958496 C 7555.500488 967.666504 7549.958496 984.291504 7549.958496 1521.5 C 7549.958496 2058.666504 7455.791504 2396.5 7278.583496 2678.916504 C 7101.375488 2961.375244 7189.958496 3072.125 6985.083008 3310.250244 C 6780.166504 3548.416504 6691.541504 3526.25 6602.958008 3781 C 6514.333008 4035.749512 6243.083496 4164.291992 6115.666504 4412.916504 C 6050.083496 4540.875 6194.083496 4132.5 6292.625 4027.833252 C 6346.916504 3970.208008 6412.041504 3921.625 6454.916504 3855.041748 C 6514.416504 3762.666748 6523.791504 3647.875244 6557.666992 3543.333252 C 6674.041992 3184.291992 7073.5 2959.458252 7147.666504 2589.416504 C 7184.125 2407.5 7134.875 2213.541504 7190.125 2036.458252 C 7231.875 1902.541504 7328.833008 1793.583008 7391.416504 1668.083496 C 7440.833496 1568.916504 7433.416992 1442.875 7379.041504 1345.583008 C 7306 1748.416504 6822 2024.249756 6805.500488 2442.249756 C 6800.375488 2570.833252 6841.708496 2703.041748 6804.375 2826.166504 C 6783.5 2895.041748 6739.75 2954.291504 6696.75 3011.999756 C 6563.625 3190.708252 6430.458496 3369.375 6297.333496 3548.083252 C 6194.333496 3686.333496 6089.666992 3827.75 6035.833008 3991.541748 C 6003.291992 4090.624756 5990.041504 4196.208008 5946.583008 4290.999512 C 5877.791504 4441.208008 5741.374512 4548.291504 5646.625 4683.624512 C 5603.166504 4745.666992 5568.125 4814.208008 5516.291504 4869.458496 C 5271.583008 5130.25 4799.5 4979.916992 4515.5 5197.249512 C 4295.583008 5365.5 4248.75 5712.125 4001.291748 5836.291992 C 3920.458252 5876.833496 3828.166748 5887.25 3742.75 5916.875 C 3629.041504 5956.291504 3531.416504 6028 3440.25 6108 L 3213.375 6108 C 3263.416504 5961 3354.125 5827.833496 3473.625 5728.541504 C 3550.125244 5664.916504 3638.416504 5614.333496 3703.666748 5539.25 C 3829.25 5394.708496 3849.166504 5184.708008 3957.625 5026.958496 C 4045.75 4898.708496 4186.833496 4813.125 4270.25 4681.75 C 4371.125488 4522.833496 4373 4322.166016 4433.666992 4143.958496 C 4549.958496 3802.374512 4872.375 3567.04126 5011.625 3234.125 C 5104.75 3011.541504 5118.25 2743.416748 5290.083496 2574.041504 C 5356.875 2508.166504 5446.625 2458.583496 5481.25 2371.416504 C 5513.541504 2290.25 5491.25 2189.708252 5543.083496 2119.416504 C 5570.916992 2081.708252 5615.5 2060 5647.250488 2025.541504 C 5700.749512 1967.375 5711.208008 1880.958496 5757.458496 1816.916504 C 5806.041504 1749.708496 5887 1715.708008 5953.833008 1666.625 C 6114.583496 1548.625 6189.333008 1346.958008 6324.958496 1200.75 C 6391.541504 1129 6471.916504 1071.625 6544.499512 1005.958496 C 6832.291504 745.625 6980.583496 375.083008 7096.583008 -0.333496 L 7547.166992 -0.333496 C 7416.416504 181.291504 7273.666504 386.875 7183.833496 486.416504 C 7128.041504 548.208008 7070.666504 612.791504 7046.458496 692.458008 C 7027.541504 754.875 7030.541992 821.958008 7015.5 885.416504 C 6993.166504 979.916504 6932.541992 1060.458008 6897.041992 1150.833008 C 6820.833496 1344.625 6864.249512 1570.375 6784.583496 1762.75 C 6743.458008 1861.958496 6672.416504 1945.208496 6614.666992 2035.75 C 6373 2414.708252 6345 2945.874756 5976.5 3203.166504 C 5867.166504 3279.499512 5735.916504 3323.666748 5637.041504 3413.125 C 5464.958496 3568.875 5428.541504 3823.708496 5301.291992 4017.875 C 5090.791992 4339 4659.291504 4457.791504 4444.125488 4775.791992 C 4473.166992 4601.25 4593.291504 4455.833008 4723.75 4336.25 C 4854.208496 4216.666504 5000.583496 4112.166504 5109.291504 3972.541504 C 5324.083496 3696.625 5367.708496 3315.624756 5586.375 3042.749756 C 5684.583496 2920.124512 5813.166504 2826.000244 5924.708008 2715.333252 C 6328.916504 2314.5 6481.833496 1732.208496 6618.416504 1179.583496 C 6480 1345.583008 6338.583496 1516.833496 6270.708008 1722 C 6237.5 1822.291504 6222.75 1928.625 6180.916504 2025.625 C 6132.333496 2138.333252 6049.833008 2232.458252 5968.708496 2324.583252 C 5784.541992 2533.541748 5600.416504 2742.5 5416.25 2951.458008 C 5304.958008 3077.791748 5191.416504 3207.749756 5131.625488 3365.124756 C 5089.416504 3476.166504 5075.583496 3597.16626 5025.625 3704.916748 C 4920.458008 3931.624756 4676.416992 4060.625 4534.875 4266.583496 C 4382.208008 4488.75 4361.791992 4780.333008 4214.791504 5006.291504 C 4088.375 5200.625 3869.125 5347.916504 3831.458252 5576.708496 C 4023.791748 5400.5 4216.083496 5224.249512 4408.416992 5048 C 4498.708008 4965.25 4591.916992 4880.666504 4706.25 4836.583008 C 4794.291504 4802.666504 4890.375 4794.666992 4979.666504 4764.166504 C 5153.500488 4704.75 5288.458008 4564.5 5389.958496 4411.375 C 5491.458008 4258.291992 5566.208496 4088.999756 5663.708496 3933.291992 C 5925.333496 3515.500244 6343.041992 3207.416504 6574 2771.874756 C 6725.5 2486.249756 6787.291504 2162.791504 6898.541992 1859.25 C 6942.000488 1740.666504 7002.749512 1638.208496 7068.291504 1536.208008 C 7198.041992 1334.25 7300.458496 1115.75 7368.333496 885.5 C 7410.291504 743.25 7498.833008 599.083496 7666.25 421.375 C 7800.166992 279.166504 7832.791504 115.583496 7835.666992 -0.333496 L 8033.041504 -0.333496 Z"/>
                </g>
                <g id="g19">
                    <path id="path18" fill="#000000" stroke="none" d="M 5260.666992 5217.166504 C 5225.833008 5379.625 5014.166992 5414.666504 4921.375 5541.166504 C 4895.291504 5576.708496 4871.458496 5614.625 4838.416504 5643.875 C 4793.166504 5683.958008 4734.208008 5704.625 4683.458496 5737.541504 C 4559.583496 5817.875 4499.291992 5958.916504 4472.5 6108 L 4011.833496 6108 C 4111.208496 6022.166016 4246.541504 5934.958008 4294.75 5859.125 C 4343.833496 5781.875 4342.583008 5677.208496 4403.708496 5609.041504 C 4486.541992 5516.583496 4639.666992 5535.833008 4742.708496 5466.583496 C 4772.208496 5446.75 4796.625 5420.166504 4825.375488 5399.208496 C 4953.958008 5305.333008 5151.708008 5333.25 5260.666992 5217.166504 Z"/>
                </g>
                <g id="g20">
                    <path id="path19" fill="#000000" stroke="none" d="M 9081.208008 -0.333496 C 9030.416992 245.625 8818.916992 453.375 8693.583008 684 C 8521.958008 999.75 8510.041016 1376.458496 8392.541016 1716.083496 C 8311.958008 1949.083496 8182.708008 2161.708496 8078.416992 2385.083252 C 7895.916992 2776.000244 7790.291504 3198.958252 7612.708496 3592.124756 C 7435.124512 3985.333496 7165.791992 4363.083008 6770.458008 4535.833008 C 6664.166992 4582.291504 6549.624512 4613.666504 6454.958008 4680.75 C 6380.375 4733.624512 6322.166992 4806 6265 4877.374512 C 6021.208496 5181.75 5777.416992 5486.166504 5533.625488 5790.541992 C 5507.458496 5823.208008 5480.416992 5856.624512 5444.291504 5877.75 C 5409.958496 5897.791992 5370 5905.208008 5332.75 5919.041016 C 5239.375 5953.666504 5170.291504 6024.041504 5114.875488 6108 L 4758.458496 6108 C 4954.333496 5824.166504 5297.583008 5629.208008 5487.458496 5329.625 C 5526.583496 5267.875 5562 5198.75 5625.25 5162.166504 C 5654.166504 5145.416504 5686.958496 5136.833008 5718.166504 5124.916992 C 5883.666992 5061.875 5996.875 4911.208496 6100.791504 4767.833008 C 6429.166504 4314.916016 6757.541992 3861.958008 7085.916504 3409.041748 C 7198.791504 3253.375 7312.375 3096.458252 7393.333496 2922.041748 C 7480.041504 2735.333252 7527.25 2533.166504 7573.875 2332.625 C 7676.625 1890.708008 7779.416992 1448.791504 7882.166504 1006.833008 C 7898.916504 934.791504 7916.625 860.583496 7959.916504 800.583008 C 8002.083496 742.166504 8068.25 696.916504 8084.416504 626.75 C 8094.583008 582.541504 8082.541992 536.708496 8076.791504 491.708008 C 8054.625 318.75 8125.583496 153.458008 8215.333008 -0.333496 L 8568.666992 -0.333496 C 8508.541992 98.083496 8450.5 197.75 8394.666992 298.666504 C 8367.333008 348.083496 8339.791992 400.458496 8339.708008 456.958496 C 8339.625 498.833496 8354.75 539.083008 8362.416992 580.25 C 8390 728.083496 8320.416992 876.666504 8236.083008 1001.208496 C 8151.749512 1125.708496 8049.416504 1241.291504 7997.541504 1382.458496 C 7965.249512 1470.458496 7954.125 1564.458496 7937.208008 1656.666504 C 7904.083496 1837.333008 7848.291992 2012.958252 7792.416504 2187.916748 C 7698.291992 2482.625 7602.458496 2779.499512 7449.916504 3048.625 C 7380.291992 3171.458252 7298.916504 3288.375244 7245.083496 3418.916748 C 7202.625 3521.874756 7177.833008 3632.125244 7126.583496 3730.958252 C 7009.875 3956.249756 6759.166504 4122.166016 6700.708008 4357.458008 C 6869.666504 4048 7266.583496 3875.125 7395.083496 3538.500244 C 7429.541992 3448.29126 7442.25 3351.333008 7471.499512 3259.291992 C 7511.541992 3133.416504 7581.500488 3019.583496 7647.333496 2905.041748 C 7842.083008 2566.375 8006.708496 2208.583496 8112.083496 1832.375 C 8197.875 1526.25 8245.791992 1204.875 8394.833008 924.083496 C 8450.666016 818.875 8520.25 720.416504 8563.5 609.416504 C 8600.208984 515.291504 8616.958984 414.541504 8649.916992 319 C 8689.5 204.125 8751.458984 99.5 8821.458008 -0.333496 L 9081.208008 -0.333496 Z"/>
                </g>
                <g id="g21">
                    <path id="path20" fill="#000000" stroke="none" d="M 7022.75 4672.458008 C 7022.75 4756.916504 6937.083496 5010.416504 6603 5427.625 C 6536.875 5510.25 6450.375488 5572.875488 6368.333496 5639.75 C 6121.499512 5840.916016 6073.791504 5897.833496 5986.916504 6108 L 5576 6108 C 5646.291504 5991.416992 5731.833496 5874.249512 5802.541504 5831.958496 C 5845.833496 5806.083496 5894.375 5790.125 5937.833496 5764.583008 C 6032.375 5709.041504 6095.125488 5613.458496 6154.416992 5521.208008 C 6203.791504 5444.416504 6253.166504 5367.625 6302.541504 5290.833496 C 6328.791504 5250.083008 6356.916504 5207.5 6400 5185.25 C 6441.125 5163.958008 6489.708496 5164.458496 6534.875 5154.166504 C 6649.375 5128.083496 6734.958496 5035.125 6809.958496 4944.75 C 6883.541992 4856.083496 6954.541992 4765.291504 7022.75 4672.458008 Z"/>
                </g>
                <g id="g22">
                    <path id="path21" fill="#000000" stroke="none" d="M 9166.666992 90.208008 L 9166.666992 877.75 C 9110.541992 962.583008 9054.375 1047.416504 8998.25 1132.208496 C 8942.583008 1216.333496 8886.458008 1301.333008 8850.875 1395.708496 C 8775.25 1596.375 8795.958008 1829.833496 8687.333008 2014.75 C 8652.25 2074.499756 8604.875 2126.583252 8572.416016 2187.791504 C 8520.875 2285.125 8510.333008 2398.749756 8470.541016 2501.458252 C 8437.208008 2587.416748 8384.083008 2664.041748 8331.458984 2739.75 C 8239 2872.666748 8146.583008 3005.54126 8054.166504 3138.458496 C 8139.541504 2807.958252 8271.791992 2489.624756 8445.75 2195.916504 C 8476.666992 2143.708252 8509.125 2091.875 8530.75 2035.166504 C 8554.333984 1973.416504 8564.5 1907.583008 8577.166992 1842.708008 C 8622.708008 1609.25 8702.666992 1382.541504 8813.625 1172.125 C 8867.416016 1070.166504 8928.791016 971.083496 8964.5 861.5 C 9008.041016 727.875 9011.333008 585.083496 9030.958008 445.958496 C 9048.916992 318.583008 9084.166016 187.25 9166.666992 90.208008 Z"/>
                </g>
                <g id="g23">
                    <path id="path22" fill="#000000" stroke="none" d="M 9166.666992 1388.041504 L 9166.666992 1692.333496 C 9120.333008 1735.333496 9076.041992 1780.583496 9034.125 1827.875 C 9000.625 1865.625 8967.75 1906.291504 8954.458984 1955 C 8940.458008 2006.458496 8949.833008 2061.125 8946.458008 2114.416504 C 8936.625 2270.791748 8817.75 2400.458252 8684.708984 2483.166504 C 8759.958984 2329.666748 8836.000977 2173.749756 8867.416016 2005.666504 C 8879.166992 1942.791504 8884.541992 1878.625 8901.083008 1816.875 C 8933.541992 1695.541504 9058.083008 1521.416504 9166.666992 1388.041504 Z"/>
                </g>
                <g id="g24">
                    <path id="path23" fill="#000000" stroke="none" d="M 9166.666992 2363.833252 L 9166.666992 2995.750244 C 9043.708008 3142.166504 8975.375 3337.25 8936.625 3527.916748 C 8885.375 3780.166992 8873.25 4041.958008 8786.000977 4284.083496 C 8662.916992 4625.75 8403 4896.375 8173.833008 5178.083496 C 8085.416504 5286.749512 7999.583496 5400.5 7950.041504 5531.5 C 7919.708496 5611.625 7903.708496 5696.249512 7884.25 5779.666504 C 7858.375 5890.833496 7826.125 6000.5 7787.833496 6108 L 7437.708496 6108 C 7450 5959.291992 7527.041504 5818.416504 7614.249512 5694.583496 C 7716.25 5549.875 7836.208008 5414.5 7902.958008 5250.541504 C 7951.583496 5131.083496 7970.083496 5000.5 8024.333496 4883.5 C 8077.333496 4769.333008 8161.875 4673.375 8232.875 4569.458496 C 8348.375 4400.458008 8428.25 4210.166992 8507.333008 4021.374756 C 8546.5 3927.875 8585.75 3834.166748 8614.583008 3736.999756 C 8639.166016 3654.166504 8656.041016 3569.249756 8679.875 3486.208496 C 8724.333984 3331.125244 8792.458008 3184 8860.333008 3037.583252 C 8908.375 2933.874756 8956.458984 2830.208252 9004.5 2726.5 C 8956.333008 2825.916748 8881.916016 2912.499756 8790.75 2974.875244 C 8752.041992 3001.374512 8710.208008 3023.75 8674.958008 3054.708252 C 8551.875 3162.79126 8530.541992 3353.54126 8410 3464.458496 C 8394.166992 3479.000244 8376 3493.249756 8369.916992 3513.874512 C 8360.125 3547.16626 8385.958008 3581.791504 8381.375 3616.208252 C 8378.666992 3636.375244 8365.791992 3653.624756 8353 3669.458252 C 8279.375 3760.583252 8190.416504 3843.124756 8145.75 3951.41626 C 8120.916992 4011.499756 8111.124512 4076.625 8090.5 4138.291992 C 7969.291504 4500.416504 7511.458496 4667.791504 7394.916992 5031.458496 C 7360.875 5137.666504 7359.458496 5253.041992 7318.333496 5356.708008 C 7280.458496 5452.25 7211.458496 5531.541016 7143.75 5608.791504 C 6997.875 5775.208496 6852.083496 5941.583496 6706.25 6108 L 6311.625 6108 C 6449.5 5905.583008 6650.250488 5745.333008 6793.416504 5543.708496 C 6940.541504 5336.541504 7023.624512 5090.166504 7163.75 4878.208008 C 7295.208008 4679.333008 7477.875 4508.5 7554.125 4282.583008 C 7609.208008 4119.416504 7604.416992 3937.91626 7679 3782.66626 C 7762.541504 3608.708008 7931.791504 3494.916504 8059.833496 3350.541504 C 8178.375488 3216.958008 8265 3053.000244 8406.5 2944.04126 C 8549.458984 2834.041748 8734.041016 2791.625244 8882.791992 2689.624756 C 9003.5 2606.875 9092.666992 2491.208252 9166.666992 2363.833252 Z"/>
                </g>
                <g id="g25">
                    <path id="path24" fill="#000000" stroke="none" d="M 7727.083496 4989.458496 C 7643.291504 5074.208496 7648.208496 5374.291504 7491.75 5687.583008 C 7454.874512 5761.416992 7402.083496 5825.5 7351.25 5890.541992 C 7297.75 5959.041504 7249.75 6031.875 7207.875 6108 L 6957.916992 6108 C 7053.166504 5963.041504 7209.083008 5854.625 7314.666992 5712.333496 C 7481 5488.208496 7522.375 5179.166504 7727.083496 4989.458496 Z"/>
                </g>
                <g id="g26">
                    <path id="path25" fill="#000000" stroke="none" d="M 9166.666992 4001.875 L 9166.666992 4674.916992 C 9009.041016 4889.541992 8872.458984 5121.333008 8791.916992 5374.666504 C 8769.75 5444.291504 8751.875 5515.5 8723.374023 5582.791504 C 8650.166992 5755.624512 8512.708984 5891.208008 8389.166992 6032.5 C 8367.708008 6057.041992 8346.5 6082.166992 8325.958008 6108 L 8081.916504 6108 C 8162.041504 5862.208496 8304.125 5636.583496 8492.625 5459.541504 C 8533.5 5421.124512 8576.916016 5384.458008 8608.625 5338.25 C 8632.666992 5303.291504 8649.333984 5263.75 8662.125 5223.333008 C 8703 5094.333008 8705.833008 4955.208008 8751.083008 4827.666504 C 8827.5 4612.166504 9016.875 4450.958496 9091.666992 4234.875 C 9118.083984 4158.624512 9132.125 4072.958008 9166.666992 4001.875 Z"/>
                </g>
                <g id="g27">
                    <path id="path26" fill="#000000" stroke="none" d="M 9166.666992 5119.124512 L 9166.666992 5601.125 C 9158.041016 5611.041504 9149.583008 5621.041504 9141.75 5631.375 C 9101.291992 5684.541504 9075.5 5748.708496 9067.833008 5815.083008 C 9064.416016 5844.708496 9064.416016 5875.374512 9052.916016 5902.916992 C 9039.75 5934.458008 9013.125 5958.041504 8987.958008 5981.166992 C 8944.083984 6021.458008 8902.125 6063.791504 8862.25 6108 L 8625.708008 6108 C 8636.875 6066.791504 8654.833008 6027.416504 8679.125 5992.291504 C 8773.958008 5855 8958.208008 5780.541504 9005.708984 5620.583496 C 9023.25 5561.5 9018.916992 5498.416504 9025.958008 5437.208496 C 9039.375 5319.958496 9093.875 5213.416992 9166.666992 5119.124512 Z"/>
                </g>
                <path id="path27" fill="none" stroke="none" d="M 9166.666992 5119.124512 L 9166.666992 5601.125 C 9158.041016 5611.041504 9149.583008 5621.041504 9141.75 5631.375 C 9101.291992 5684.541504 9075.5 5748.708496 9067.833008 5815.083008 C 9064.416016 5844.708496 9064.416016 5875.374512 9052.916016 5902.916992 C 9039.75 5934.458008 9013.125 5958.041504 8987.958008 5981.166992 C 8944.083984 6021.458008 8902.125 6063.791504 8862.25 6108 L 8625.708008 6108 C 8636.875 6066.791504 8654.833008 6027.416504 8679.125 5992.291504 C 8773.958008 5855 8958.208008 5780.541504 9005.708984 5620.583496 C 9023.25 5561.5 9018.916992 5498.416504 9025.958008 5437.208496 C 9039.375 5319.958496 9093.875 5213.416992 9166.666992 5119.124512 Z"/>
            </g>
        </g>
    </g>
</svg>
